<svg width="200" height="200" viewBox="0 0 200 200" xmlns="http://www.w3.org/2000/svg">
  <rect width="200" height="200" fill="#fafafa" stroke="#ddd"/>
    <path d="M 124.5 100.0 L 123.7 103.8 L 121.2 107.3 L 117.3 110.4 L 112.2 112.7 L 106.3 114.2 L 100.0 114.7 L 93.7 114.2 L 87.8 112.7 L 82.7 110.4 L 78.8 107.3 L 76.3 103.8 L 75.5 100.0 L 76.3 96.2 L 78.8 92.7 L 82.7 89.6 L 87.7 87.3 L 93.7 85.8 L 100.0 85.3 L 106.3 85.8 L 112.2 87.3 L 117.3 89.6 L 121.2 92.6 L 123.7 96.2 L 124.5 100.0" stroke="#333" stroke-width="2" fill="none"/>
    <path d="M 95.1 100.0 L 60.8 65.7 L 75.5 90.2 L 95.1 100.0" stroke="#333" stroke-width="2" fill="none"/>
    <path d="M 104.9 100.0 L 139.2 65.7 L 124.5 90.2 L 104.9 100.0" stroke="#333" stroke-width="2" fill="none"/>
    <path d="M 124.5 97.5 L 139.2 100.0 L 124.5 102.5" stroke="#333" stroke-width="2" fill="none"/>
    <path d="M 75.5 100.0 L 55.9 92.7 L 58.4 104.9 L 75.5 100.0" stroke="#333" stroke-width="2" fill="none"/>
  <text x="100" y="192" text-anchor="middle" font-size="12" fill="#666">bird</text>
</svg>