<svg width="200" height="200" viewBox="0 0 200 200" xmlns="http://www.w3.org/2000/svg">
  <rect width="200" height="200" fill="#fafafa" stroke="#ddd"/>
    <path d="M 100.0 116.8 L 96.8 118.7 L 93.3 120.0 L 89.5 120.6 L 85.4 120.3 L 81.4 119.1 L 77.4 117.0 L 73.8 114.0 L 70.5 110.1 L 67.8 105.5 L 65.8 100.2 L 64.6 94.6 L 64.2 88.8 L 64.6 83.0 L 65.8 77.4 L 67.8 72.1 L 70.5 67.5 L 73.8 63.6 L 77.4 60.6 L 81.4 58.5 L 85.4 57.3 L 89.5 57.0 L 93.3 57.6 L 96.8 58.9 L 100.0 60.8" stroke="#333" stroke-width="2" fill="none"/>
    <path d="M 100.0 116.8 L 103.2 118.7 L 106.7 120.0 L 110.5 120.6 L 114.6 120.3 L 118.6 119.1 L 122.6 117.0 L 126.2 114.0 L 129.5 110.1 L 132.2 105.5 L 134.2 100.2 L 135.4 94.6 L 135.8 88.8 L 135.4 83.0 L 134.2 77.4 L 132.2 72.1 L 129.5 67.5 L 126.2 63.6 L 122.6 60.6 L 118.6 58.5 L 114.6 57.3 L 110.5 57.0 L 106.7 57.6 L 103.2 58.9 L 100.0 60.8" stroke="#333" stroke-width="2" fill="none"/>
    <path d="M 100.0 88.8 L 98.3 87.1 L 96.2 85.7 L 94.0 84.8 L 91.5 84.4 L 89.0 84.6 L 86.6 85.5 L 84.3 86.9 L 82.3 89.0 L 80.7 91.5 L 79.5 94.4 L 78.8 97.5 L 78.7 100.7 L 79.1 103.9 L 80.0 106.8 L 81.3 109.5 L 83.0 111.7 L 84.9 113.5 L 87.0 114.7 L 89.1 115.5" stroke="#333" stroke-width="2" fill="none"/>
    <path d="M 100.0 88.8 L 101.7 87.1 L 103.8 85.7 L 106.0 84.8 L 108.5 84.4 L 111.0 84.6 L 113.4 85.5 L 115.7 86.9 L 117.7 89.0 L 119.3 91.5 L 120.5 94.4 L 121.2 97.5 L 121.3 100.7 L 120.9 103.9 L 120.0 106.8 L 118.7 109.5 L 117.0 111.7 L 115.1 113.5 L 113.0 114.7 L 110.9 115.5" stroke="#333" stroke-width="2" fill="none"/>
    <path d="M 100.0 72.0 L 98.3 100.0 L 100.0 122.4 L 101.7 100.0 L 100.0 72.0" stroke="#333" stroke-width="2" fill="none"/>
    <path d="M 100.0 72.0 L 91.6 55.2" stroke="#333" stroke-width="2" fill="none"/>
    <path d="M 100.0 72.0 L 108.4 55.2" stroke="#333" stroke-width="2" fill="none"/>
  <text x="100" y="192" text-anchor="middle" font-size="12" fill="#666">butterfly</text>
</svg>