<svg width="200" height="200" viewBox="0 0 200 200" xmlns="http://www.w3.org/2000/svg">
  <rect width="200" height="200" fill="#fafafa" stroke="#ddd"/>
    <path d="M 44.0 105.6 L 44.0 88.8 L 66.4 88.8 L 77.6 66.4 L 122.4 66.4 L 133.6 88.8 L 156.0 88.8 L 156.0 105.6" stroke="#333" stroke-width="2" fill="none"/>
    <path d="M 79.3 105.6 L 78.5 109.5 L 76.3 112.7 L 73.1 114.9 L 69.2 115.7 L 65.3 114.9 L 62.1 112.7 L 59.9 109.5 L 59.1 105.6 L 59.9 101.7 L 62.1 98.5 L 65.3 96.3 L 69.2 95.5 L 73.1 96.3 L 76.3 98.5 L 78.5 101.7 L 79.3 105.6" stroke="#333" stroke-width="2" fill="none"/>
    <path d="M 140.9 105.6 L 140.1 109.5 L 137.9 112.7 L 134.7 114.9 L 130.8 115.7 L 126.9 114.9 L 123.7 112.7 L 121.5 109.5 L 120.7 105.6 L 121.5 101.7 L 123.7 98.5 L 126.9 96.3 L 130.8 95.5 L 134.7 96.3 L 137.9 98.5 L 140.1 101.7 L 140.9 105.6" stroke="#333" stroke-width="2" fill="none"/>
    <path d="M 80.4 88.8 L 91.6 69.2 L 108.4 69.2 L 119.6 88.8" stroke="#333" stroke-width="2" fill="none"/>
  <text x="100" y="192" text-anchor="middle" font-size="12" fill="#666">car</text>
</svg>