<svg width="200" height="200" viewBox="0 0 200 200" xmlns="http://www.w3.org/2000/svg">
  <rect width="200" height="200" fill="#fafafa" stroke="#ddd"/>
    <path d="M 66.4 128.0 L 66.4 88.8 L 133.6 88.8 L 133.6 128.0" stroke="#333" stroke-width="2" fill="none"/>
    <path d="M 66.4 88.8 L 66.4 80.4 L 72.0 80.4 L 72.0 88.8 L 77.6 88.8 L 77.6 80.4 L 83.2 80.4 L 83.2 88.8 L 88.8 88.8 L 88.8 80.4 L 94.4 80.4 L 94.4 88.8 L 100.0 88.8 L 100.0 80.4 L 105.6 80.4 L 105.6 88.8 L 111.2 88.8 L 111.2 80.4 L 116.8 80.4 L 116.8 88.8 L 122.4 88.8 L 122.4 80.4 L 128.0 80.4 L 128.0 88.8 L 133.6 88.8 L 133.6 80.4 L 139.2 80.4 L 139.2 88.8" stroke="#333" stroke-width="2" fill="none"/>
    <path d="M 60.8 128.0 L 60.8 72.0 L 72.0 72.0 L 72.0 128.0" stroke="#333" stroke-width="2" fill="none"/>
    <path d="M 128.0 128.0 L 128.0 72.0 L 139.2 72.0 L 139.2 128.0" stroke="#333" stroke-width="2" fill="none"/>
    <path d="M 58.0 72.0 L 66.4 55.2 L 74.8 72.0" stroke="#333" stroke-width="2" fill="none"/>
    <path d="M 125.2 72.0 L 133.6 55.2 L 142.0 72.0" stroke="#333" stroke-width="2" fill="none"/>
    <path d="M 108.4 128.0 L 108.1 124.4 L 107.3 121.0 L 105.9 118.1 L 104.2 115.9 L 102.2 114.5 L 100.0 114.0 L 97.8 114.5 L 95.8 115.9 L 94.1 118.1 L 92.7 121.0 L 91.9 124.4 L 91.6 128.0 L 108.4 128.0 L 91.6 128.0" stroke="#333" stroke-width="2" fill="none"/>
  <text x="100" y="192" text-anchor="middle" font-size="12" fill="#666">castle</text>
</svg>