<svg width="200" height="200" viewBox="0 0 200 200" xmlns="http://www.w3.org/2000/svg">
  <rect width="200" height="200" fill="#fafafa" stroke="#ddd"/>
    <path d="M 119.6 109.8 L 118.9 116.1 L 117.0 122.0 L 113.9 127.1 L 109.8 131.0 L 105.1 133.5 L 100.0 134.3 L 94.9 133.5 L 90.2 131.0 L 86.1 127.1 L 83.0 122.0 L 81.1 116.1 L 80.4 109.8 L 81.1 103.5 L 83.0 97.5 L 86.1 92.5 L 90.2 88.6 L 94.9 86.1 L 100.0 85.3 L 105.1 86.1 L 109.8 88.6 L 113.9 92.5 L 117.0 97.5 L 118.9 103.5 L 119.6 109.8" stroke="#333" stroke-width="2" fill="none"/>
    <path d="M 114.7 80.4 L 114.2 84.2 L 112.7 87.8 L 110.4 90.8 L 107.3 93.1 L 103.8 94.6 L 100.0 95.1 L 96.2 94.6 L 92.7 93.1 L 89.6 90.8 L 87.3 87.8 L 85.8 84.2 L 85.3 80.4 L 85.8 76.6 L 87.3 73.1 L 89.6 70.0 L 92.6 67.7 L 96.2 66.2 L 100.0 65.7 L 103.8 66.2 L 107.3 67.7 L 110.4 70.0 L 112.7 73.0 L 114.2 76.6 L 114.7 80.4" stroke="#333" stroke-width="2" fill="none"/>
    <path d="M 90.2 70.6 L 87.8 53.5 L 97.5 68.2" stroke="#333" stroke-width="2" fill="none"/>
    <path d="M 109.8 70.6 L 112.2 53.5 L 102.5 68.2" stroke="#333" stroke-width="2" fill="none"/>
    <path d="M 119.6 114.7 L 121.3 109.2 L 123.1 104.1 L 124.8 99.4 L 126.6 95.5 L 128.3 92.6 L 130.1 90.8 L 131.8 90.2 L 133.6 90.8 L 135.3 92.6 L 137.1 95.5 L 138.8 99.4 L 140.6 104.1 L 142.3 109.2 L 144.1 114.7" stroke="#333" stroke-width="2" fill="none"/>
    <path d="M 104.9 82.8 L 124.5 78.0" stroke="#333" stroke-width="2" fill="none"/>
    <path d="M 104.9 85.3 L 124.5 85.3" stroke="#333" stroke-width="2" fill="none"/>
    <path d="M 95.1 82.8 L 75.5 78.0" stroke="#333" stroke-width="2" fill="none"/>
    <path d="M 95.1 85.3 L 75.5 85.3" stroke="#333" stroke-width="2" fill="none"/>
  <text x="100" y="192" text-anchor="middle" font-size="12" fill="#666">cat</text>
</svg>