<svg width="200" height="200" viewBox="0 0 200 200" xmlns="http://www.w3.org/2000/svg">
  <rect width="200" height="200" fill="#fafafa" stroke="#ddd"/>
    <path d="M 51.0 114.0 L 149.0 114.0 L 135.0 72.0 L 142.2 73.3 L 148.5 76.9 L 153.2 82.5 L 155.7 89.4 L 155.7 96.6 L 153.2 103.5 L 148.5 109.1 L 142.2 112.7 L 135.0 114.0 L 138.5 79.0 L 135.1 72.9 L 130.8 68.1 L 125.7 65.4 L 119.9 65.4 L 113.6 68.1 L 106.9 72.9 L 100.0 79.0 L 93.1 85.1 L 86.4 89.9 L 80.1 92.6 L 74.3 92.6 L 69.2 89.9 L 64.9 85.1 L 61.5 79.0 L 65.0 110.5 L 59.0 109.4 L 53.8 106.4 L 49.8 101.8 L 47.8 96.0 L 47.8 90.0 L 49.8 84.2 L 53.8 79.6 L 59.0 76.6 L 65.0 75.5 L 51.0 114.0" stroke="#333" stroke-width="2" fill="none"/>
  <text x="100" y="192" text-anchor="middle" font-size="12" fill="#666">cloud_detailed</text>
</svg>