<svg width="200" height="200" viewBox="0 0 200 200" xmlns="http://www.w3.org/2000/svg">
  <rect width="200" height="200" fill="#fafafa" stroke="#ddd"/>
    <path d="M 170.0 100.0 L 168.9 112.2 L 165.8 123.9 L 160.6 135.0 L 153.6 145.0 L 145.0 153.6 L 135.0 160.6 L 123.9 165.8 L 112.2 168.9 L 100.0 170.0 L 87.8 168.9 L 76.1 165.8 L 65.0 160.6 L 55.0 153.6 L 46.4 145.0 L 39.4 135.0 L 34.2 123.9 L 31.1 112.2 L 30.0 100.0 L 31.1 87.8 L 34.2 76.1 L 39.4 65.0 L 46.4 55.0 L 55.0 46.4 L 65.0 39.4 L 76.1 34.2 L 87.8 31.1 L 100.0 30.0 L 112.2 31.1 L 123.9 34.2 L 135.0 39.4 L 145.0 46.4 L 153.6 55.0 L 160.6 65.0 L 165.8 76.1 L 168.9 87.8 L 170.0 100.0" stroke="#333" stroke-width="2" fill="none"/>
    <path d="M 184.0 100.0 L 183.1 109.7 L 180.6 119.2 L 176.5 128.0 L 170.9 136.0 L 164.0 142.9 L 156.0 148.5 L 147.2 152.6 L 137.7 155.1 L 128.0 156.0 L 118.3 155.1 L 108.8 152.6 L 100.0 148.5 L 92.0 142.9 L 85.1 136.0 L 79.5 128.0 L 75.4 119.2 L 72.9 109.7 L 72.0 100.0 L 72.9 90.3 L 75.4 80.8 L 79.5 72.0 L 85.1 64.0 L 92.0 57.1 L 100.0 51.5 L 108.8 47.4 L 118.3 44.9 L 128.0 44.0 L 137.7 44.9 L 147.2 47.4 L 156.0 51.5 L 164.0 57.1 L 170.9 64.0 L 176.5 72.0 L 180.6 80.8 L 183.1 90.3 L 184.0 100.0" stroke="#333" stroke-width="2" fill="none"/>
  <text x="100" y="192" text-anchor="middle" font-size="12" fill="#666">crescent</text>
</svg>