<svg width="200" height="200" viewBox="0 0 200 200" xmlns="http://www.w3.org/2000/svg">
  <rect width="200" height="200" fill="#fafafa" stroke="#ddd"/>
    <path d="M 170.0 100.0 L 168.9 107.3 L 165.8 114.4 L 160.6 121.0 L 153.6 127.0 L 145.0 132.2 L 135.0 136.4 L 123.9 139.5 L 112.2 141.4 L 100.0 142.0 L 87.8 141.4 L 76.1 139.5 L 65.0 136.4 L 55.0 132.2 L 46.4 127.0 L 39.4 121.0 L 34.2 114.4 L 31.1 107.3 L 30.0 100.0 L 31.1 92.7 L 34.2 85.6 L 39.4 79.0 L 46.4 73.0 L 55.0 67.8 L 65.0 63.6 L 76.1 60.5 L 87.8 58.6 L 100.0 58.0 L 112.2 58.6 L 123.9 60.5 L 135.0 63.6 L 145.0 67.8 L 153.6 73.0 L 160.6 79.0 L 165.8 85.6 L 168.9 92.7 L 170.0 100.0" stroke="#333" stroke-width="2" fill="none"/>
  <text x="100" y="192" text-anchor="middle" font-size="12" fill="#666">ellipse</text>
</svg>