<svg width="200" height="200" viewBox="0 0 200 200" xmlns="http://www.w3.org/2000/svg">
  <rect width="200" height="200" fill="#fafafa" stroke="#ddd"/>
    <path d="M 133.6 100.0 L 132.5 104.3 L 129.1 108.4 L 123.8 111.9 L 116.8 114.5 L 108.7 116.2 L 100.0 116.8 L 91.3 116.2 L 83.2 114.5 L 76.2 111.9 L 70.9 108.4 L 67.5 104.3 L 66.4 100.0 L 67.5 95.7 L 70.9 91.6 L 76.2 88.1 L 83.2 85.5 L 91.3 83.8 L 100.0 83.2 L 108.7 83.8 L 116.8 85.5 L 123.8 88.1 L 129.1 91.6 L 132.5 95.7 L 133.6 100.0" stroke="#333" stroke-width="2" fill="none"/>
    <path d="M 69.2 100.0 L 49.6 80.4 L 60.8 100.0 L 49.6 119.6 L 69.2 100.0" stroke="#333" stroke-width="2" fill="none"/>
    <path d="M 119.6 97.2 L 119.2 98.6 L 118.2 99.6 L 116.8 100.0 L 115.4 99.6 L 114.4 98.6 L 114.0 97.2 L 114.4 95.8 L 115.4 94.8 L 116.8 94.4 L 118.2 94.8 L 119.2 95.8 L 119.6 97.2" stroke="#333" stroke-width="2" fill="none"/>
    <path d="M 100.0 83.2 L 94.4 66.4 L 108.4 83.2" stroke="#333" stroke-width="2" fill="none"/>
  <text x="100" y="192" text-anchor="middle" font-size="12" fill="#666">fish</text>
</svg>