<svg width="200" height="200" viewBox="0 0 200 200" xmlns="http://www.w3.org/2000/svg">
  <rect width="200" height="200" fill="#fafafa" stroke="#ddd"/>
    <path d="M 100.0 100.0 L 110.3 94.8 L 120.8 90.9 L 131.2 88.3 L 141.0 87.2 L 149.9 87.4 L 157.5 88.8 L 163.5 91.2 L 167.6 94.4 L 169.7 98.1 L 169.7 101.9 L 167.6 105.6 L 163.5 108.8 L 157.5 111.2 L 149.9 112.6 L 141.0 112.8 L 131.2 111.7 L 120.8 109.1 L 110.3 105.2 L 100.0 100.0" stroke="#333" stroke-width="2" fill="none"/>
    <path d="M 100.0 100.0 L 109.6 106.3 L 118.3 113.5 L 125.7 121.2 L 131.6 129.1 L 135.9 136.9 L 138.5 144.2 L 139.4 150.6 L 138.7 155.8 L 136.5 159.4 L 133.2 161.4 L 129.0 161.4 L 124.1 159.4 L 119.0 155.4 L 114.0 149.6 L 109.4 142.0 L 105.5 132.9 L 102.5 122.6 L 100.6 111.5 L 100.0 100.0" stroke="#333" stroke-width="2" fill="none"/>
    <path d="M 100.0 100.0 L 99.4 111.5 L 97.5 122.6 L 94.5 132.9 L 90.6 142.0 L 86.0 149.6 L 81.0 155.4 L 75.9 159.4 L 71.0 161.4 L 66.8 161.4 L 63.5 159.4 L 61.3 155.8 L 60.6 150.6 L 61.5 144.2 L 64.1 136.9 L 68.4 129.1 L 74.3 121.2 L 81.7 113.5 L 90.4 106.3 L 100.0 100.0" stroke="#333" stroke-width="2" fill="none"/>
    <path d="M 100.0 100.0 L 89.7 105.2 L 79.2 109.1 L 68.8 111.7 L 59.0 112.8 L 50.1 112.6 L 42.5 111.2 L 36.5 108.8 L 32.4 105.6 L 30.3 101.9 L 30.3 98.1 L 32.4 94.4 L 36.5 91.2 L 42.5 88.8 L 50.1 87.4 L 59.0 87.2 L 68.8 88.3 L 79.2 90.9 L 89.7 94.8 L 100.0 100.0" stroke="#333" stroke-width="2" fill="none"/>
    <path d="M 100.0 100.0 L 90.4 93.7 L 81.7 86.5 L 74.3 78.8 L 68.4 70.9 L 64.1 63.1 L 61.5 55.8 L 60.6 49.4 L 61.3 44.2 L 63.5 40.6 L 66.8 38.6 L 71.0 38.6 L 75.9 40.6 L 81.0 44.6 L 86.0 50.4 L 90.6 58.0 L 94.5 67.1 L 97.5 77.4 L 99.4 88.5 L 100.0 100.0" stroke="#333" stroke-width="2" fill="none"/>
    <path d="M 100.0 100.0 L 100.6 88.5 L 102.5 77.4 L 105.5 67.1 L 109.4 58.0 L 114.0 50.4 L 119.0 44.6 L 124.1 40.6 L 129.0 38.6 L 133.2 38.6 L 136.5 40.6 L 138.7 44.2 L 139.4 49.4 L 138.5 55.8 L 135.9 63.1 L 131.6 70.9 L 125.7 78.8 L 118.3 86.5 L 109.6 93.7 L 100.0 100.0" stroke="#333" stroke-width="2" fill="none"/>
  <text x="100" y="192" text-anchor="middle" font-size="12" fill="#666">flower</text>
</svg>