<svg width="200" height="200" viewBox="0 0 200 200" xmlns="http://www.w3.org/2000/svg">
  <rect width="200" height="200" fill="#fafafa" stroke="#ddd"/>
    <path d="M 100.0 78.1 L 100.1 77.2 L 100.6 74.4 L 102.1 70.1 L 104.7 64.9 L 108.8 59.5 L 114.2 54.5 L 121.0 50.6 L 128.7 48.3 L 137.1 47.9 L 145.5 49.7 L 153.4 53.5 L 160.2 59.0 L 165.5 66.0 L 168.9 74.0 L 170.0 82.5 L 168.9 91.2 L 165.5 99.9 L 160.2 108.3 L 153.4 116.4 L 145.5 124.1 L 137.1 131.5 L 128.7 138.6 L 121.0 145.4 L 114.2 151.9 L 108.8 158.0 L 104.7 163.4 L 102.1 168.0 L 100.6 171.5 L 100.1 173.6 L 100.0 174.4 L 99.9 173.6 L 99.4 171.5 L 97.9 168.0 L 95.3 163.4 L 91.3 158.0 L 85.8 151.9 L 79.0 145.4 L 71.3 138.6 L 62.9 131.5 L 54.5 124.1 L 46.6 116.4 L 39.8 108.3 L 34.5 99.9 L 31.1 91.2 L 30.0 82.5 L 31.1 74.0 L 34.5 66.0 L 39.8 59.0 L 46.6 53.5 L 54.5 49.7 L 62.9 47.9 L 71.3 48.3 L 79.0 50.6 L 85.8 54.5 L 91.3 59.5 L 95.3 64.9 L 97.9 70.1 L 99.4 74.4 L 99.9 77.2 L 100.0 78.1" stroke="#333" stroke-width="2" fill="none"/>
  <text x="100" y="192" text-anchor="middle" font-size="12" fill="#666">heart</text>
</svg>