<svg width="200" height="200" viewBox="0 0 200 200" xmlns="http://www.w3.org/2000/svg">
  <rect width="200" height="200" fill="#fafafa" stroke="#ddd"/>
    <path d="M 91.6 128.0 L 91.6 83.2 L 100.0 55.2 L 108.4 83.2 L 108.4 128.0 L 91.6 128.0" stroke="#333" stroke-width="2" fill="none"/>
    <path d="M 91.6 116.8 L 77.6 133.6 L 91.6 128.0" stroke="#333" stroke-width="2" fill="none"/>
    <path d="M 108.4 116.8 L 122.4 133.6 L 108.4 128.0" stroke="#333" stroke-width="2" fill="none"/>
    <path d="M 104.5 91.6 L 103.9 93.8 L 102.2 95.5 L 100.0 96.1 L 97.8 95.5 L 96.1 93.8 L 95.5 91.6 L 96.1 89.4 L 97.8 87.7 L 100.0 87.1 L 102.2 87.7 L 103.9 89.4 L 104.5 91.6" stroke="#333" stroke-width="2" fill="none"/>
    <path d="M 94.4 128.0 L 97.2 139.2 L 100.0 133.6 L 102.8 142.0 L 105.6 128.0" stroke="#333" stroke-width="2" fill="none"/>
  <text x="100" y="192" text-anchor="middle" font-size="12" fill="#666">rocket</text>
</svg>