<svg width="200" height="200" viewBox="0 0 200 200" xmlns="http://www.w3.org/2000/svg">
  <rect width="200" height="200" fill="#fafafa" stroke="#ddd"/>
    <path d="M 100.0 100.0 L 100.8 100.2 L 101.4 100.6 L 101.9 101.4 L 102.1 102.3 L 101.9 103.4 L 101.4 104.4 L 100.6 105.4 L 99.3 106.2 L 97.8 106.7 L 96.1 106.7 L 94.3 106.4 L 92.4 105.5 L 90.8 104.1 L 89.3 102.3 L 88.3 100.0 L 87.8 97.4 L 87.9 94.6 L 88.7 91.8 L 90.1 89.0 L 92.2 86.5 L 95.0 84.5 L 98.2 83.0 L 101.9 82.2 L 105.8 82.2 L 109.7 83.2 L 113.5 85.0 L 117.0 87.7 L 119.9 91.1 L 122.1 95.3 L 123.3 100.0 L 123.6 105.0 L 122.7 110.1 L 120.8 115.1 L 117.7 119.7 L 113.6 123.6 L 108.7 126.6 L 103.0 128.6 L 96.9 129.4 L 90.6 128.8 L 84.4 126.9 L 78.7 123.7 L 73.6 119.2 L 69.4 113.6 L 66.5 107.1 L 65.0 100.0 L 65.0 92.6 L 66.6 85.1 L 69.8 78.1 L 74.5 71.7 L 80.6 66.3 L 87.7 62.3 L 95.8 59.8 L 104.3 59.0 L 113.0 60.1 L 121.4 63.0 L 129.1 67.6 L 135.9 73.9 L 141.2 81.7 L 144.9 90.5 L 146.7 100.0 L 146.4 109.9 L 144.1 119.6 L 139.6 128.8 L 133.3 137.0 L 125.3 143.8 L 115.9 148.8 L 105.4 151.8 L 94.5 152.6 L 83.4 151.0 L 72.8 147.2 L 63.0 141.0 L 54.7 132.9 L 48.1 123.1 L 43.7 112.0 L 41.7 100.0 L 42.2 87.7 L 45.3 75.6 L 50.9 64.3 L 58.9 54.3 L 68.9 46.1 L 80.5 40.1 L 93.3 36.6 L 106.7 35.8 L 120.2 37.9 L 133.1 42.7 L 144.8 50.3 L 154.7 60.2 L 162.5 72.2 L 167.7 85.6" stroke="#333" stroke-width="2" fill="none"/>
  <text x="100" y="192" text-anchor="middle" font-size="12" fill="#666">spiral</text>
</svg>