<svg width="200" height="200" viewBox="0 0 200 200" xmlns="http://www.w3.org/2000/svg">
  <rect width="200" height="200" fill="#fafafa" stroke="#ddd"/>
    <path d="M 135.0 100.0 L 134.5 106.1 L 132.9 112.0 L 130.3 117.5 L 126.8 122.5 L 122.5 126.8 L 117.5 130.3 L 112.0 132.9 L 106.1 134.5 L 100.0 135.0 L 93.9 134.5 L 88.0 132.9 L 82.5 130.3 L 77.5 126.8 L 73.2 122.5 L 69.7 117.5 L 67.1 112.0 L 65.5 106.1 L 65.0 100.0 L 65.5 93.9 L 67.1 88.0 L 69.7 82.5 L 73.2 77.5 L 77.5 73.2 L 82.5 69.7 L 88.0 67.1 L 93.9 65.5 L 100.0 65.0 L 106.1 65.5 L 112.0 67.1 L 117.5 69.7 L 122.5 73.2 L 126.8 77.5 L 130.3 82.5 L 132.9 88.0 L 134.5 93.9 L 135.0 100.0" stroke="#333" stroke-width="2" fill="none"/>
    <path d="M 138.5 100.0 L 170.0 100.0" stroke="#333" stroke-width="2" fill="none"/>
    <path d="M 127.2 127.2 L 149.5 149.5" stroke="#333" stroke-width="2" fill="none"/>
    <path d="M 100.0 138.5 L 100.0 170.0" stroke="#333" stroke-width="2" fill="none"/>
    <path d="M 72.8 127.2 L 50.5 149.5" stroke="#333" stroke-width="2" fill="none"/>
    <path d="M 61.5 100.0 L 30.0 100.0" stroke="#333" stroke-width="2" fill="none"/>
    <path d="M 72.8 72.8 L 50.5 50.5" stroke="#333" stroke-width="2" fill="none"/>
    <path d="M 100.0 61.5 L 100.0 30.0" stroke="#333" stroke-width="2" fill="none"/>
    <path d="M 127.2 72.8 L 149.5 50.5" stroke="#333" stroke-width="2" fill="none"/>
  <text x="100" y="192" text-anchor="middle" font-size="12" fill="#666">sun</text>
</svg>