<svg width="200" height="200" viewBox="0 0 200 200" xmlns="http://www.w3.org/2000/svg">
  <rect width="200" height="200" fill="#fafafa" stroke="#ddd"/>
    <path d="M 93.0 100.0 L 107.0 100.0 L 107.0 170.0 L 93.0 170.0 L 93.0 100.0" stroke="#333" stroke-width="2" fill="none"/>
    <path d="M 149.0 65.0 L 148.3 73.5 L 146.0 81.8 L 142.4 89.5 L 137.5 96.5 L 131.5 102.5 L 124.5 107.4 L 116.8 111.0 L 108.5 113.3 L 100.0 114.0 L 91.5 113.3 L 83.2 111.0 L 75.5 107.4 L 68.5 102.5 L 62.5 96.5 L 57.6 89.5 L 54.0 81.8 L 51.7 73.5 L 51.0 65.0 L 51.7 56.5 L 54.0 48.2 L 57.6 40.5 L 62.5 33.5 L 68.5 27.5 L 75.5 22.6 L 83.2 19.0 L 91.5 16.7 L 100.0 16.0 L 108.5 16.7 L 116.8 19.0 L 124.5 22.6 L 131.5 27.5 L 137.5 33.5 L 142.4 40.5 L 146.0 48.2 L 148.3 56.5 L 149.0 65.0" stroke="#333" stroke-width="2" fill="none"/>
  <text x="100" y="192" text-anchor="middle" font-size="12" fill="#666">tree</text>
</svg>