<svg width="200" height="200" viewBox="0 0 200 200" xmlns="http://www.w3.org/2000/svg">
  <rect width="200" height="200" fill="#fafafa" stroke="#ddd"/>
    <path d="M 30.0 100.0 L 32.4 106.6 L 34.7 112.5 L 37.1 117.2 L 39.5 120.1 L 41.9 121.0 L 44.2 119.8 L 46.6 116.5 L 49.0 111.6 L 51.4 105.5 L 53.7 98.9 L 56.1 92.4 L 58.5 86.6 L 60.8 82.2 L 63.2 79.6 L 65.6 79.1 L 68.0 80.7 L 70.3 84.2 L 72.7 89.3 L 75.1 95.6 L 77.5 102.2 L 79.8 108.7 L 82.2 114.2 L 84.6 118.4 L 86.9 120.6 L 89.3 120.8 L 91.7 118.9 L 94.1 115.0 L 96.4 109.7 L 98.8 103.3 L 101.2 96.7 L 103.6 90.3 L 105.9 85.0 L 108.3 81.1 L 110.7 79.2 L 113.1 79.4 L 115.4 81.6 L 117.8 85.8 L 120.2 91.3 L 122.5 97.8 L 124.9 104.4 L 127.3 110.7 L 129.7 115.8 L 132.0 119.3 L 134.4 120.9 L 136.8 120.4 L 139.2 117.8 L 141.5 113.4 L 143.9 107.6 L 146.3 101.1 L 148.6 94.5 L 151.0 88.4 L 153.4 83.5 L 155.8 80.2 L 158.1 79.0 L 160.5 79.9 L 162.9 82.8 L 165.3 87.5 L 167.6 93.4 L 170.0 100.0" stroke="#333" stroke-width="2" fill="none"/>
  <text x="100" y="192" text-anchor="middle" font-size="12" fill="#666">wave</text>
</svg>